<svg width="59" height="56" viewBox="0 0 59 56" fill="none" xmlns="http://www.w3.org/2000/svg">
<path d="M59 24.889C58.4614 18.0169 55.0681 12.64 50.1425 8.08955C45.6589 3.94774 40.5049 1.12278 34.3794 0.247982C29.2644 -0.481942 24.4707 0.348279 20.3215 3.51128C14.7995 7.69721 9.62943 12.3281 4.86304 17.3575C-0.933635 23.5015 -1.16581 31.8186 2.15506 38.2412C6.94507 47.5017 14.6362 53.1888 24.9536 55.0146C31.144 56.1104 36.8812 54.723 41.9647 50.9545C46.4222 47.6503 50.6049 44.0323 54.2006 39.7865C56.9495 36.5455 58.6434 32.8308 58.9684 28.5441" fill="#272729"/>
<path d="M40.4885 14.001H19V18.4294H27.4029V42.5147H32.1817V18.4294H40.4885V14.001Z" fill="white"/>
</svg>
